<?xml version="1.0" encoding="UTF-8" standalone="no"?>
<!-- Creator: fig2dev Version 3.2.8b -->
<!-- CreationDate: 2025-02-28 17:42:22 -->
<!-- Magnification: 1.05 -->
<svg	xmlns="http://www.w3.org/2000/svg"
	xmlns:xlink="http://www.w3.org/1999/xlink"
	width="32pt" height="36pt"
	viewBox="2283 5085 499 570">
<g fill="none">
<!-- Line -->
<rect x="2295" y="5097" width="358" height="451" fill="#ffffff"
	stroke="#000000" stroke-width="8px"/>
<!-- Line -->
<rect x="2399" y="5172" width="371" height="471" fill="#ffffff"
	stroke="#000000" stroke-width="8px"/>
<!-- Line -->
<polyline points=" 2457,5299 2459,5298 2468,5292 2482,5285 2495,5278 2504,5275 2513,5274 2520,5275
 2528,5278 2536,5282 2544,5286 2551,5289 2557,5291 2564,5291 2571,5291 2578,5289
 2586,5286 2594,5284 2602,5282 2611,5281 2621,5280 2631,5280 2641,5281 2649,5281
 2656,5282 2661,5283 2665,5285 2668,5286 2670,5288" fill="#ffffff"
	stroke="#000000" stroke-width="8px" stroke-linejoin="bevel"/>
<!-- Line -->
<polyline points=" 2474,5397 2476,5396 2483,5390 2491,5383 2497,5379 2502,5377 2505,5376 2509,5377
 2514,5379 2520,5381 2527,5385 2534,5387 2544,5390 2555,5393 2566,5395 2576,5397
 2585,5397 2593,5396 2601,5395 2609,5393 2617,5391 2624,5390 2631,5390 2638,5392
 2648,5395 2660,5401 2673,5409 2682,5414 2684,5415" fill="#ffffff"
	stroke="#000000" stroke-width="8px" stroke-linejoin="bevel"/>
<!-- Circle -->
<circle cx="2611" cy="5422" r="89" fill="#ffffff"
	stroke="#000000" stroke-width="8px"/>
<!-- Line -->
<polygon points=" 2656,5499 2725,5609 2735,5602 2664,5494" fill="#ffffff"
	stroke="#000000" stroke-width="8px"/>
<!-- Line -->
<polyline points=" 2581,5365 2582,5365 2586,5363 2591,5361 2595,5359 2598,5358 2601,5358 2605,5357
 2608,5357 2612,5357 2615,5357 2618,5357 2621,5357 2624,5358 2627,5358 2630,5359
 2633,5359 2636,5360 2639,5361 2641,5361 2643,5362 2645,5363 2647,5364 2648,5366
 2649,5367 2650,5368 2651,5368 2652,5369 2653,5370 2654,5370 2654,5371 2655,5371
 2656,5371" fill="#ffffff"
	stroke="#000000" stroke-width="8px" stroke-linejoin="bevel"/>
</g>
</svg>
