<?xml version="1.0" encoding="UTF-8" standalone="no"?>
<!-- Creator: fig2dev Version 3.2.8b -->
<!-- CreationDate: 2025-02-28 17:43:10 -->
<!-- Magnification: 1.05 -->
<svg	xmlns="http://www.w3.org/2000/svg"
	xmlns:xlink="http://www.w3.org/1999/xlink"
	width="31pt" height="34pt"
	viewBox="3037 4763 489 531">
<g fill="none">
<!-- Line -->
<rect x="3049" y="4775" width="465" height="507" fill="#ffffff"
	stroke="#000000" stroke-width="8px"/>
<!-- Line -->
<polyline points=" 3116,4897 3117,4897 3123,4898 3134,4898 3148,4899 3161,4900 3173,4900 3182,4900
 3192,4899 3201,4897 3211,4895 3222,4893 3233,4891 3244,4889 3254,4887 3264,4887
 3273,4887 3281,4888 3289,4890 3298,4893 3306,4896 3314,4899 3322,4901 3329,4903
 3337,4903 3346,4903 3357,4900 3368,4897 3379,4893 3389,4890 3398,4888 3407,4888
 3417,4890 3428,4895 3440,4900 3448,4904 3450,4905"
	stroke="#000000" stroke-width="8px" stroke-linejoin="bevel"/>
<!-- Line -->
<polyline points=" 3123,5089 3124,5089 3132,5088 3146,5087 3164,5085 3179,5084 3192,5084 3203,5085
 3212,5086 3220,5089 3229,5092 3238,5097 3248,5103 3259,5111 3268,5117 3272,5120
 3273,5121"
	stroke="#000000" stroke-width="8px" stroke-linejoin="bevel"/>
<!-- Line -->
<polyline points=" 3122,4986 3124,4986 3134,4987 3149,4988 3162,4989 3172,4990 3180,4991 3186,4993
 3193,4995 3199,4997 3206,4999 3213,5000 3220,5001 3228,5000 3238,4999 3250,4998
 3261,4995 3272,4992 3282,4989 3289,4987 3296,4984 3304,4982 3312,4979 3320,4977
 3328,4976 3337,4976 3346,4976 3353,4977 3362,4979 3372,4982 3384,4986 3399,4991
 3414,4996 3428,5001 3438,5005 3443,5007 3444,5007"
	stroke="#000000" stroke-width="8px" stroke-linejoin="bevel"/>
<!-- Line -->
<polygon points=" 3291,5068 3282,5106 3314,5080 3301,5076" fill="#000000"
	stroke="#000000" stroke-width="8px"/>
<!-- Line -->
<polygon points=" 3302,5044 3314,5060 3334,5068 3508,4868 3484,4848" fill="#000000"
	stroke="#000000" stroke-width="8px"/>
</g>
</svg>
