<?xml version="1.0" encoding="UTF-8" standalone="no"?>
<!-- Creator: fig2dev Version 3.2.8b -->
<!-- CreationDate: 2025-02-28 17:44:32 -->
<!-- Magnification: 1.05 -->
<svg	xmlns="http://www.w3.org/2000/svg"
	xmlns:xlink="http://www.w3.org/1999/xlink"
	width="30pt" height="37pt"
	viewBox="2752 5296 466 575">
<g fill="none">
<!-- Line -->
<rect x="2764" y="5353" width="442" height="506" fill="#ffffff"
	stroke="#000000" stroke-width="8px"/>
<!-- Line -->
<rect x="2810" y="5473" width="23" height="26"
	stroke="#000000" stroke-width="8px"/>
<!-- Line -->
<rect x="2810" y="5616" width="23" height="26" fill="#ffffff"
	stroke="#000000" stroke-width="8px"/>
<!-- Line -->
<rect x="2809" y="5413" width="22" height="26" fill="#000000"
	stroke="#000000" stroke-width="8px"/>
<!-- Line -->
<rect x="2812" y="5771" width="24" height="27" fill="#000000"
	stroke="#000000" stroke-width="8px"/>
<!-- Line -->
<polygon points=" 2907,5373 3053,5373 3055,5356 3053,5346 3041,5339 3008,5333 3004,5328 3000,5322
 2987,5309 2982,5308 2976,5308 2974,5309 2960,5320 2955,5327 2953,5330 2951,5332
 2918,5337 2909,5343 2903,5355 2904,5367" fill="#ffffff"
	stroke="#000000" stroke-width="8px"/>
<!-- Line -->
<polyline points=" 2878,5432 2879,5431 2883,5429 2888,5427 2892,5425 2895,5423 2899,5422 2903,5422
 2908,5421 2912,5421 2917,5422 2921,5422 2926,5423 2932,5425 2937,5426 2943,5426
 2949,5427 2955,5427 2962,5427 2968,5426 2972,5426 2975,5425 2979,5424 2982,5423
 2986,5423 2991,5423 2996,5424 3002,5425 3010,5425 3017,5426 3023,5427 3029,5427
 3034,5426 3038,5425 3042,5424 3046,5422 3049,5421 3053,5421 3058,5420 3065,5421
 3072,5421 3079,5423 3086,5424 3093,5425 3101,5426 3109,5427 3116,5428 3121,5429
 3127,5428 3131,5427 3135,5426 3137,5425 3139,5424 3140,5423 3141,5422 3142,5421
" fill="#000000"
	stroke="#000000" stroke-width="8px" stroke-linejoin="bevel"/>
<!-- Line -->
<polyline points=" 2889,5487 2890,5487 2895,5486 2901,5485 2908,5484 2914,5484 2921,5484 2929,5484
 2938,5484 2947,5485 2955,5486 2962,5486 2969,5487 2976,5488 2981,5490 2986,5491
 2991,5492 2995,5493 3001,5493 3007,5494 3015,5494 3023,5494 3030,5494 3039,5493
 3049,5492 3058,5491 3067,5490 3074,5490 3081,5489 3087,5489 3092,5489 3097,5490
 3100,5491 3104,5491 3107,5492 3111,5493 3115,5494 3117,5495 3120,5495 3122,5496
 3125,5496 3128,5496" fill="#000000"
	stroke="#000000" stroke-width="8px" stroke-linejoin="bevel"/>
<!-- Line -->
<polyline points=" 2806,5565 2856,5565" fill="#000000"
	stroke="#000000" stroke-width="8px" stroke-linejoin="bevel"/>
<!-- Line -->
<polyline points=" 2909,5559 2910,5558 2913,5556 2918,5553 2921,5551 2925,5551 2929,5552 2934,5554
 2940,5556 2947,5559 2956,5560 2964,5561 2973,5561 2984,5561 2994,5560 3004,5560
 3012,5559 3020,5558 3027,5557 3034,5556 3040,5556 3046,5555 3053,5555 3059,5556
 3066,5556 3074,5557 3081,5558 3088,5559 3093,5559 3098,5559 3102,5559 3105,5559
 3107,5559 3109,5558 3110,5557 3111,5557 3112,5556 3113,5555" fill="#000000"
	stroke="#000000" stroke-width="8px" stroke-linejoin="bevel"/>
<!-- Line -->
<polyline points=" 2809,5712 2857,5712" fill="#000000"
	stroke="#000000" stroke-width="8px" stroke-linejoin="bevel"/>
<!-- Line -->
<polyline points=" 2907,5634 2908,5634 2912,5632 2918,5630 2923,5629 2927,5628 2932,5628 2939,5627
 2946,5628 2953,5629 2959,5630 2965,5632 2971,5634 2977,5637 2982,5638 2987,5639
 2992,5638 2997,5637 3003,5634 3008,5632 3013,5630 3018,5629 3023,5628 3030,5628
 3036,5629 3043,5630 3048,5630 3055,5632 3061,5633 3068,5633 3075,5634 3080,5633
 3087,5632 3094,5629 3102,5625 3109,5621 3110,5620" fill="#000000"
	stroke="#000000" stroke-width="8px" stroke-linejoin="bevel"/>
<!-- Line -->
<polyline points=" 2917,5713 2918,5714 2924,5716 2931,5719 2937,5722 2942,5723 2947,5724 2952,5724
 2958,5724 2965,5724 2972,5724 2979,5724 2987,5724 2995,5723 3005,5723 3014,5722
 3024,5722 3032,5721 3040,5720 3048,5720 3056,5719 3064,5718 3070,5717 3076,5716
 3082,5716 3088,5715 3095,5715 3101,5715 3102,5715" fill="#000000"
	stroke="#000000" stroke-width="8px" stroke-linejoin="bevel"/>
<!-- Line -->
<polyline points=" 2910,5793 2910,5792 2912,5790 2914,5787 2916,5785 2919,5785 2921,5785 2925,5787
 2929,5789 2933,5791 2937,5793 2942,5795 2946,5798 2951,5800 2956,5800 2961,5800
 2965,5799 2970,5796 2976,5793 2981,5791 2985,5789 2990,5788 2995,5788 3000,5789
 3006,5790 3011,5792 3017,5793 3025,5794 3032,5795 3040,5796 3046,5797 3052,5797
 3058,5798 3063,5798 3068,5798 3071,5798 3074,5797 3077,5797 3079,5796 3081,5796
 3082,5796 3083,5795 3084,5795 3085,5795 3086,5795" fill="#000000"
	stroke="#000000" stroke-width="8px" stroke-linejoin="bevel"/>
</g>
</svg>
