<?xml version="1.0" encoding="UTF-8" standalone="no"?>
<!-- Creator: fig2dev Version 3.2.8b -->
<!-- CreationDate: 2025-02-28 17:46:32 -->
<!-- Magnification: 1.05 -->
<svg	xmlns="http://www.w3.org/2000/svg"
	xmlns:xlink="http://www.w3.org/1999/xlink"
	width="33pt" height="31pt"
	viewBox="2738 4804 510 480">
<g fill="none">
<!-- Line -->
<polygon points=" 2999,4839 3213,5092 3236,5092 3017,4839" fill="#000000"
	stroke="#000000" stroke-width="8px"/>
<!-- Line -->
<polygon points=" 3094,4937 3094,4849 3118,4849 3118,4972" fill="#000000"
	stroke="#000000" stroke-width="8px"/>
<!-- Line -->
<polygon points=" 2809,5061 2809,5272 2972,5272 2972,5185 3002,5185 3002,5168 2958,5168 2958,5254
 2821,5254 2821,5061" fill="#000000"
	stroke="#000000" stroke-width="8px"/>
<!-- Line -->
<polygon points=" 3186,5061 3186,5272 3025,5272 3025,5185 2995,5185 2995,5168 3038,5168 3038,5254
 3176,5254 3176,5061" fill="#000000"
	stroke="#000000" stroke-width="8px"/>
<!-- Line -->
<polygon points=" 2997,4839 2783,5092 2750,5092 2981,4839" fill="#000000"
	stroke="#000000" stroke-width="8px"/>
<!-- Line -->
<polygon points=" 3031,4854 2999,4816 2966,4854 3026,4854" fill="#000000"
	stroke="#000000" stroke-width="8px"/>
</g>
</svg>
