<?xml version="1.0" encoding="UTF-8" standalone="no"?>
<!-- Creator: fig2dev Version 3.2.8b -->
<!-- CreationDate: 2025-02-28 17:26:23 -->
<!-- Magnification: 1.05 -->
<svg	xmlns="http://www.w3.org/2000/svg"
	xmlns:xlink="http://www.w3.org/1999/xlink"
	width="28pt" height="29pt"
	viewBox="3156 5611 433 455">
<g fill="none">
<!-- Line -->
<rect x="3168" y="5623" width="409" height="431" fill="#ffffff"
	stroke="#000000" stroke-width="8px"/>
<!-- Line -->
<polyline points=" 3252,5738 3252,5809 3294,5809" fill="#ffffff"
	stroke="#000000" stroke-width="8px"/>
<!-- Arc -->
<path d="M 3480,5740 A 35 35 0 1 0 3481 5809" fill="#ffffff"
	stroke="#000000" stroke-width="8px"/>
<!-- Arc -->
<path d="M 3480,5808 A 22 22 0 0 0 3507 5777" fill="#ffffff"
	stroke="#000000" stroke-width="8px"/>
<!-- Line -->
<polyline points=" 3504,5777 3482,5777" fill="#ffffff"
	stroke="#000000" stroke-width="8px" stroke-linejoin="bevel"/>
<!-- Line -->
<polyline points=" 3511,5784 3503,5776" fill="#ffffff"
	stroke="#000000" stroke-width="8px" stroke-linejoin="bevel"/>
<!-- Line -->
<polyline points=" 3507,5776 3506,5776 3505,5777 3504,5777 3503,5777 3502,5778" fill="#ffffff"
	stroke="#000000" stroke-width="8px" stroke-linejoin="bevel"/>
<!-- Line -->
<polyline points=" 3478,5740 3497,5740" fill="#ffffff"
	stroke="#000000" stroke-width="8px" stroke-linejoin="bevel"/>
<!-- Circle -->
<circle cx="3370" cy="5775" r="36" fill="#ffffff"
	stroke="#000000" stroke-width="8px"/>
<!-- Line -->
<polyline points=" 3242,5871 3244,5871 3252,5871 3265,5871 3277,5872 3287,5872 3294,5872 3301,5872
 3308,5872 3315,5872 3321,5872 3327,5871 3332,5871 3338,5869 3344,5867 3350,5866
 3356,5864 3362,5864 3368,5865 3374,5866 3381,5867 3389,5870 3396,5872 3404,5874
 3411,5875 3419,5877 3427,5878 3435,5879 3442,5879 3448,5879 3454,5878 3459,5876
 3465,5874 3471,5872 3477,5871 3483,5870 3492,5869 3503,5868 3516,5867 3525,5867
 3527,5867" fill="#ffffff"
	stroke="#000000" stroke-width="8px" stroke-linejoin="bevel"/>
<!-- Line -->
<polyline points=" 3244,5948 3245,5947 3249,5942 3254,5937 3258,5934 3261,5933 3264,5934 3267,5935
 3271,5938 3275,5941 3280,5943 3285,5945 3292,5946 3300,5947 3307,5947 3313,5947
 3317,5946 3322,5945 3327,5944 3332,5943 3338,5942 3344,5942 3351,5943 3359,5944
 3367,5945 3375,5945 3382,5946 3389,5946 3397,5946 3404,5946 3410,5946 3416,5945
 3420,5945 3423,5945 3426,5946 3429,5946 3431,5948 3433,5949 3436,5951 3440,5953
 3445,5955 3450,5956 3456,5956 3461,5955 3467,5952 3474,5949 3481,5946 3487,5943
 3493,5942 3499,5941 3505,5940 3510,5941 3514,5941 3516,5941 3518,5941 3518,5942
 3519,5942" fill="#ffffff"
	stroke="#000000" stroke-width="8px" stroke-linejoin="bevel"/>
<!-- Line -->
<polyline points=" 3246,5682 3248,5683 3256,5686 3268,5691 3280,5695 3288,5697 3294,5698 3300,5697
 3306,5696 3312,5694 3319,5691 3326,5690 3334,5690 3344,5690 3355,5690 3366,5690
 3376,5691 3384,5690 3393,5689 3400,5687 3407,5685 3413,5683 3419,5683 3424,5684
 3431,5685 3438,5687 3446,5689 3453,5690 3461,5691 3468,5691 3476,5689 3486,5686
 3497,5682 3504,5680 3505,5679" fill="#ffffff"
	stroke="#000000" stroke-width="8px" stroke-linejoin="bevel"/>
</g>
</svg>
