<svg width="200" height="150" xmlns="http://www.w3.org/2000/svg">
  <defs>
    <filter id="shadow" x="-20%" y="-20%" width="140%" height="140%">
      <feGaussianBlur in="SourceAlpha" stdDeviation="3"/>
      <feOffset dx="3" dy="3" result="offsetblur"/>
      <feComponentTransfer>
        <feFuncA type="linear" slope="0.5"/>
      </feComponentTransfer>
      <feMerge>
        <feMergeNode in="offsetblur"/>
        <feMergeNode in="SourceGraphic"/>
      </feMerge>
    </filter>
  </defs>

  <path d="M 100 25 a 50 50 0 1 0 0 100 a 50 50 0 1 0 0 -100 M 100 45 a 30 30 0 1 1 0 60 a 30 30 0 1 1 0 -60"
        fill="#3498db" filter="url(#shadow)"/>

  <path d="M 110 30 h 60 v 20 h -20 v 70 h -20 v -70 h -20 z"
        fill="#e74c3c" transform="translate(10,10)" filter="url(#shadow)"/>

    <path d="M 110 30 h 60 v 20 h -20 v 70 h -20 v -70 h -20 z"
        fill="#ffffff" transform="translate(10,10) scale(0.98)" />

</svg>
